<svg width="22" height="22" viewBox="0 0 22 22" fill="none" xmlns="http://www.w3.org/2000/svg">
<path d="M4.58333 15.5833C4.58333 16.0696 4.77649 16.5359 5.1203 16.8797C5.46412 17.2235 5.93044 17.4167 6.41667 17.4167C6.9029 17.4167 7.36921 17.2235 7.71303 16.8797C8.05685 16.5359 8.25 16.0696 8.25 15.5833C8.25 15.0971 8.05685 14.6308 7.71303 14.287C7.36921 13.9432 6.9029 13.75 6.41667 13.75C5.93044 13.75 5.46412 13.9432 5.1203 14.287C4.77649 14.6308 4.58333 15.0971 4.58333 15.5833ZM13.75 15.5833C13.75 16.0696 13.9432 16.5359 14.287 16.8797C14.6308 17.2235 15.0971 17.4167 15.5833 17.4167C16.0696 17.4167 16.5359 17.2235 16.8797 16.8797C17.2235 16.5359 17.4167 16.0696 17.4167 15.5833C17.4167 15.0971 17.2235 14.6308 16.8797 14.287C16.5359 13.9432 16.0696 13.75 15.5833 13.75C15.0971 13.75 14.6308 13.9432 14.287 14.287C13.9432 14.6308 13.75 15.0971 13.75 15.5833Z" stroke="white" stroke-width="1.83333" stroke-linecap="round" stroke-linejoin="round"/>
<path d="M4.58333 15.5833H2.75V10.0833M2.75 10.0833L4.58333 5.5H12.8333L16.5 10.0833M2.75 10.0833H16.5M16.5 10.0833H17.4167C17.9029 10.0833 18.3692 10.2765 18.713 10.6203C19.0568 10.9641 19.25 11.4304 19.25 11.9167V15.5833H17.4167M13.75 15.5833H8.25M11 10.0833V5.5" stroke="white" stroke-width="1.83333" stroke-linecap="round" stroke-linejoin="round"/>
</svg>
