<svg width="22" height="22" viewBox="0 0 22 22" fill="none" xmlns="http://www.w3.org/2000/svg">
<path d="M9.16667 15.5833V18.3333M12.8333 15.5833V18.3333M11 3.66666C15.0498 3.66666 18.3333 6.74482 18.3333 10.5417C18.3333 12.2842 17.6413 13.8756 16.5 15.0883V17.4167C16.5 17.6598 16.4034 17.8929 16.2315 18.0648C16.0596 18.2367 15.8264 18.3333 15.5833 18.3333H6.41667C6.17355 18.3333 5.94039 18.2367 5.76849 18.0648C5.59658 17.8929 5.5 17.6598 5.5 17.4167V15.0883C4.35875 13.8765 3.66667 12.2852 3.66667 10.5417C3.66667 6.74482 6.95017 3.66666 11 3.66666Z" stroke="white" stroke-width="1.83333" stroke-linecap="round" stroke-linejoin="round"/>
<path d="M7.33333 10.0833C7.33333 10.3264 7.42991 10.5596 7.60182 10.7315C7.77373 10.9034 8.00688 11 8.25 11C8.49311 11 8.72627 10.9034 8.89818 10.7315C9.07009 10.5596 9.16667 10.3264 9.16667 10.0833C9.16667 9.84021 9.07009 9.60705 8.89818 9.43514C8.72627 9.26323 8.49311 9.16666 8.25 9.16666C8.00688 9.16666 7.77373 9.26323 7.60182 9.43514C7.42991 9.60705 7.33333 9.84021 7.33333 10.0833ZM12.8333 10.0833C12.8333 10.3264 12.9299 10.5596 13.1018 10.7315C13.2737 10.9034 13.5069 11 13.75 11C13.9931 11 14.2263 10.9034 14.3982 10.7315C14.5701 10.5596 14.6667 10.3264 14.6667 10.0833C14.6667 9.84021 14.5701 9.60705 14.3982 9.43514C14.2263 9.26323 13.9931 9.16666 13.75 9.16666C13.5069 9.16666 13.2737 9.26323 13.1018 9.43514C12.9299 9.60705 12.8333 9.84021 12.8333 10.0833Z" stroke="white" stroke-width="1.83333" stroke-linecap="round" stroke-linejoin="round"/>
</svg>
