<svg width="22" height="22" viewBox="0 0 22 22" fill="none" xmlns="http://www.w3.org/2000/svg">
<path d="M13.75 10.0833V10.0925M4.74191 7.67983C4.33986 7.37082 4.03108 6.95667 3.84969 6.48315C3.6683 6.00962 3.62136 5.49517 3.71407 4.99663C3.80678 4.4981 4.03552 4.03491 4.37502 3.65825C4.71452 3.2816 5.15155 3.00614 5.63781 2.86233C6.12406 2.71852 6.64062 2.71196 7.13037 2.84337C7.62013 2.97477 8.06402 3.23904 8.41297 3.60695C8.76193 3.97486 9.00237 4.43208 9.10772 4.9281C9.21306 5.42411 9.17922 5.9396 9.00991 6.41758" stroke="white" stroke-width="1.83333" stroke-linecap="round" stroke-linejoin="round"/>
<path d="M14.6667 3.66666V7.15274C15.8011 7.80919 16.6649 8.84807 17.1032 10.0833H18.3324C18.5755 10.0833 18.8087 10.1799 18.9806 10.3518C19.1525 10.5237 19.2491 10.7569 19.2491 11V12.8333C19.2491 13.0764 19.1525 13.3096 18.9806 13.4815C18.8087 13.6534 18.5755 13.75 18.3324 13.75H17.1022C16.7942 14.6208 16.2708 15.4 15.5824 16.0169V17.875C15.5824 18.2397 15.4376 18.5894 15.1797 18.8473C14.9218 19.1051 14.5721 19.25 14.2074 19.25C13.8427 19.25 13.493 19.1051 13.2351 18.8473C12.9773 18.5894 12.8324 18.2397 12.8324 17.875V17.3406C12.5295 17.3913 12.2229 17.4168 11.9157 17.4167H8.24908C7.94195 17.4168 7.63533 17.3913 7.33242 17.3406V17.875C7.33242 18.2397 7.18755 18.5894 6.92969 18.8473C6.67183 19.1051 6.32209 19.25 5.95742 19.25C5.59274 19.25 5.24301 19.1051 4.98514 18.8473C4.72728 18.5894 4.58242 18.2397 4.58242 17.875V16.0169C3.75188 15.2744 3.16642 14.2971 2.90352 13.2145C2.64063 12.1319 2.7127 10.995 3.1102 9.95428C3.50769 8.91354 4.21187 8.01805 5.12951 7.38633C6.04716 6.75462 7.13502 6.41648 8.24908 6.41666H10.5407L14.6657 3.66666H14.6667Z" stroke="white" stroke-width="1.83333" stroke-linecap="round" stroke-linejoin="round"/>
</svg>
