<svg width="22" height="22" viewBox="0 0 22 22" fill="none" xmlns="http://www.w3.org/2000/svg">
<path d="M13.75 3.66666L19.25 5.49999V10.0833H16.5V17.4167C16.5 17.6598 16.4034 17.8929 16.2315 18.0648C16.0596 18.2367 15.8264 18.3333 15.5833 18.3333H6.41667C6.17355 18.3333 5.94039 18.2367 5.76849 18.0648C5.59658 17.8929 5.5 17.6598 5.5 17.4167V10.0833H2.75V5.49999L8.25 3.66666C8.25 4.396 8.53973 5.09548 9.05546 5.6112C9.57118 6.12693 10.2707 6.41666 11 6.41666C11.7293 6.41666 12.4288 6.12693 12.9445 5.6112C13.4603 5.09548 13.75 4.396 13.75 3.66666Z" stroke="white" stroke-width="1.83333" stroke-linecap="round" stroke-linejoin="round"/>
</svg>
