<svg width="22" height="22" viewBox="0 0 22 22" fill="none" xmlns="http://www.w3.org/2000/svg">
<path d="M2 5V11.6667H20V10.3333H11.6923V9H20V7.66667H11.6923V6.33333H20V5H2ZM3.38462 5.66667C3.56823 5.66667 3.74432 5.7369 3.87415 5.86193C4.00398 5.98695 4.07692 6.15652 4.07692 6.33333C4.07692 6.51014 4.00398 6.67971 3.87415 6.80474C3.74432 6.92976 3.56823 7 3.38462 7C3.201 7 3.02491 6.92976 2.89508 6.80474C2.76525 6.67971 2.69231 6.51014 2.69231 6.33333C2.69231 6.15652 2.76525 5.98695 2.89508 5.86193C3.02491 5.7369 3.201 5.66667 3.38462 5.66667ZM6.15385 5.66667C6.33746 5.66667 6.51355 5.7369 6.64338 5.86193C6.77321 5.98695 6.84615 6.15652 6.84615 6.33333C6.84615 6.51014 6.77321 6.67971 6.64338 6.80474C6.51355 6.92976 6.33746 7 6.15385 7C5.97023 7 5.79414 6.92976 5.66431 6.80474C5.53448 6.67971 5.46154 6.51014 5.46154 6.33333C5.46154 6.15652 5.53448 5.98695 5.66431 5.86193C5.79414 5.7369 5.97023 5.66667 6.15385 5.66667ZM8.92308 5.66667C9.10669 5.66667 9.28278 5.7369 9.41261 5.86193C9.54245 5.98695 9.61538 6.15652 9.61538 6.33333C9.61538 6.51014 9.54245 6.67971 9.41261 6.80474C9.28278 6.92976 9.10669 7 8.92308 7C8.73947 7 8.56337 6.92976 8.43354 6.80474C8.30371 6.67971 8.23077 6.51014 8.23077 6.33333C8.23077 6.15652 8.30371 5.98695 8.43354 5.86193C8.56337 5.7369 8.73947 5.66667 8.92308 5.66667ZM4.76923 7.66667C4.95284 7.66667 5.12893 7.7369 5.25877 7.86193C5.3886 7.98695 5.46154 8.15652 5.46154 8.33333C5.46154 8.51014 5.3886 8.67971 5.25877 8.80474C5.12893 8.92976 4.95284 9 4.76923 9C4.58562 9 4.40953 8.92976 4.2797 8.80474C4.14986 8.67971 4.07692 8.51014 4.07692 8.33333C4.07692 8.15652 4.14986 7.98695 4.2797 7.86193C4.40953 7.7369 4.58562 7.66667 4.76923 7.66667ZM7.53846 7.66667C7.72207 7.66667 7.89816 7.7369 8.028 7.86193C8.15783 7.98695 8.23077 8.15652 8.23077 8.33333C8.23077 8.51014 8.15783 8.67971 8.028 8.80474C7.89816 8.92976 7.72207 9 7.53846 9C7.35485 9 7.17876 8.92976 7.04893 8.80474C6.91909 8.67971 6.84615 8.51014 6.84615 8.33333C6.84615 8.15652 6.91909 7.98695 7.04893 7.86193C7.17876 7.7369 7.35485 7.66667 7.53846 7.66667ZM10.3077 7.66667C10.4913 7.66667 10.6674 7.7369 10.7972 7.86193C10.9271 7.98695 11 8.15652 11 8.33333C11 8.51014 10.9271 8.67971 10.7972 8.80474C10.6674 8.92976 10.4913 9 10.3077 9C10.1241 9 9.94799 8.92976 9.81816 8.80474C9.68832 8.67971 9.61538 8.51014 9.61538 8.33333C9.61538 8.15652 9.68832 7.98695 9.81816 7.86193C9.94799 7.7369 10.1241 7.66667 10.3077 7.66667ZM3.38462 9.66667C3.56823 9.66667 3.74432 9.7369 3.87415 9.86193C4.00398 9.98695 4.07692 10.1565 4.07692 10.3333C4.07692 10.5101 4.00398 10.6797 3.87415 10.8047C3.74432 10.9298 3.56823 11 3.38462 11C3.201 11 3.02491 10.9298 2.89508 10.8047C2.76525 10.6797 2.69231 10.5101 2.69231 10.3333C2.69231 10.1565 2.76525 9.98695 2.89508 9.86193C3.02491 9.7369 3.201 9.66667 3.38462 9.66667ZM6.15385 9.66667C6.33746 9.66667 6.51355 9.7369 6.64338 9.86193C6.77321 9.98695 6.84615 10.1565 6.84615 10.3333C6.84615 10.5101 6.77321 10.6797 6.64338 10.8047C6.51355 10.9298 6.33746 11 6.15385 11C5.97023 11 5.79414 10.9298 5.66431 10.8047C5.53448 10.6797 5.46154 10.5101 5.46154 10.3333C5.46154 10.1565 5.53448 9.98695 5.66431 9.86193C5.79414 9.7369 5.97023 9.66667 6.15385 9.66667ZM8.92308 9.66667C9.10669 9.66667 9.28278 9.7369 9.41261 9.86193C9.54245 9.98695 9.61538 10.1565 9.61538 10.3333C9.61538 10.5101 9.54245 10.6797 9.41261 10.8047C9.28278 10.9298 9.10669 11 8.92308 11C8.73947 11 8.56337 10.9298 8.43354 10.8047C8.30371 10.6797 8.23077 10.5101 8.23077 10.3333C8.23077 10.1565 8.30371 9.98695 8.43354 9.86193C8.56337 9.7369 8.73947 9.66667 8.92308 9.66667ZM2 13V14.3333H20V13H2ZM2 15.6667V17H20V15.6667H2Z" fill="white"/>
</svg>
